<?xml version="1.0" standalone="no"?>
<!DOCTYPE svg PUBLIC "-//W3C//DTD SVG 20010904//EN"
 "http://www.w3.org/TR/2001/REC-SVG-20010904/DTD/svg10.dtd">
<svg version="1.0" xmlns="http://www.w3.org/2000/svg"
 width="412.000000pt" height="412.000000pt" viewBox="0 0 412.000000 412.000000"
 preserveAspectRatio="xMidYMid meet">
<metadata>
Created by potrace 1.14, written by Peter Selinger 2001-2017
</metadata>
<g transform="translate(0.000000,412.000000) scale(0.100000,-0.100000)"
fill="#000000" stroke="none">
<path d="M1738 4095 c-3 -3 -18 -8 -34 -10 -31 -4 -34 -5 -135 -29 -291 -68
-591 -219 -836 -421 -70 -58 -262 -255 -269 -277 -3 -10 -9 -18 -14 -18 -5 0
-18 -15 -29 -33 -18 -29 -33 -49 -71 -94 -5 -7 -10 -15 -10 -17 0 -3 -15 -29
-34 -58 -46 -72 -117 -208 -109 -208 3 0 -2 -9 -12 -20 -10 -11 -15 -20 -10
-20 4 0 3 -6 -3 -12 -27 -34 -116 -314 -127 -400 -2 -15 -6 -31 -8 -35 -3 -4
-7 -32 -11 -61 -3 -28 -9 -69 -14 -90 -9 -49 -9 -403 1 -467 16 -105 50 -271
60 -295 5 -14 10 -28 9 -31 -4 -23 74 -228 133 -347 57 -118 176 -306 215
-342 9 -8 19 -20 21 -27 12 -35 197 -220 340 -338 43 -37 124 -90 132 -87 4 1
7 -2 7 -7 0 -10 91 -67 103 -63 4 1 7 -3 7 -9 0 -5 4 -8 9 -5 5 4 11 2 13 -2
7 -17 280 -142 343 -157 6 -1 17 -5 25 -8 20 -8 130 -38 155 -43 11 -2 31 -6
45 -9 46 -10 75 -15 110 -20 19 -3 55 -8 80 -13 25 -4 128 -7 230 -7 163 0
234 4 305 18 11 3 43 8 70 12 28 5 52 9 55 10 3 1 21 5 40 9 51 11 218 63 265
82 155 64 223 98 345 173 58 36 110 69 115 73 139 109 187 151 254 217 45 44
81 82 81 85 0 3 14 20 31 37 87 89 218 292 298 461 50 104 125 315 136 378 3
19 8 43 11 52 7 23 13 56 20 108 3 25 8 48 9 51 15 24 22 362 11 468 -17 154
-23 186 -55 316 -44 181 -128 385 -220 535 -11 19 -24 42 -28 50 -7 15 -17 28
-40 55 -7 7 -13 16 -13 19 0 12 -72 106 -82 106 -5 0 -6 4 -3 10 8 13 -309
330 -329 330 -9 0 -16 4 -16 10 0 12 -205 148 -302 199 -42 22 -105 52 -140
66 -34 14 -72 30 -83 35 -22 10 -67 23 -75 22 -3 0 -9 3 -15 8 -11 8 -113 39
-155 47 -14 2 -64 13 -112 24 -76 16 -128 19 -386 19 -164 0 -301 -2 -304 -5z
m532 -230 c25 -4 61 -8 80 -11 19 -3 46 -8 60 -11 14 -4 32 -8 40 -9 35 -4
196 -55 244 -77 40 -18 57 -33 70 -61 17 -36 17 -38 -3 -69 -59 -94 -62 -107
-65 -300 -2 -136 -7 -199 -21 -249 -9 -38 -21 -68 -26 -68 -5 0 -9 -6 -9 -14
0 -20 -50 -67 -94 -86 -54 -25 -89 -12 -155 55 -39 40 -67 59 -103 70 -27 8
-54 12 -61 10 -7 -2 -26 -6 -44 -9 -45 -6 -100 -25 -142 -49 -55 -31 -142
-124 -193 -203 -47 -73 -60 -90 -116 -153 -43 -48 -82 -132 -82 -176 0 -77 44
-134 126 -164 70 -25 117 -19 162 23 46 41 64 93 66 190 2 68 7 103 23 138 34
75 94 99 120 47 14 -27 10 -51 -24 -133 -14 -33 -26 -68 -28 -77 -7 -37 15
-84 50 -108 30 -20 42 -23 92 -17 88 10 97 9 115 -15 17 -20 17 -23 1 -50 -25
-42 -93 -71 -172 -75 -36 -2 -100 -5 -142 -7 -137 -6 -216 -67 -356 -274 -50
-73 -114 -133 -142 -133 -16 0 -122 -59 -153 -85 -16 -14 -27 -25 -23 -25 3 0
-1 -10 -9 -22 -37 -52 -9 -155 49 -182 75 -36 154 -5 214 84 37 55 80 89 120
96 20 3 41 7 46 8 24 7 93 -32 130 -72 43 -48 105 -92 130 -92 8 0 24 9 34 19
16 16 18 26 11 54 -11 49 -2 83 24 95 29 13 56 9 144 -22 39 -13 72 -23 72
-21 0 3 11 0 25 -5 14 -5 70 -12 126 -15 105 -6 162 -23 179 -55 19 -36 20
-81 4 -116 -16 -33 -96 -111 -106 -103 -3 2 -11 -1 -19 -7 -13 -10 -37 -18
-94 -30 -56 -12 -194 -3 -270 17 -22 6 -44 12 -50 14 -5 1 -21 7 -35 12 -82
35 -180 72 -215 82 -82 24 -229 32 -309 18 -101 -19 -213 -108 -260 -209 -94
-200 -11 -408 200 -504 42 -19 83 -36 93 -38 9 -1 30 -9 46 -15 17 -7 50 -19
75 -28 91 -30 226 -101 273 -143 77 -69 115 -166 84 -213 -27 -41 -91 -49
-247 -32 -99 10 -146 19 -226 41 -28 8 -60 16 -70 18 -40 8 -222 80 -299 119
-44 22 -111 60 -149 86 -38 25 -77 51 -85 56 -9 6 -18 12 -21 15 -3 3 -25 21
-50 40 -101 78 -214 190 -299 295 -31 39 -58 72 -61 75 -15 14 -121 194 -153
260 -66 138 -100 236 -137 400 -18 83 -22 110 -36 235 -11 108 -5 331 11 415
3 13 7 42 11 65 17 122 66 259 114 322 41 53 136 108 205 118 159 22 293 77
371 152 49 48 124 150 124 171 0 6 3 12 8 14 4 2 24 30 46 62 90 138 232 230
293 191 47 -31 26 -88 -78 -210 -55 -63 -69 -87 -69 -113 0 -67 77 -67 275 3
168 59 205 77 245 116 37 37 51 68 55 122 2 30 -5 50 -31 89 -19 27 -34 54
-34 59 0 5 -4 9 -8 9 -20 0 0 78 32 125 19 27 40 73 46 100 17 69 33 105 47
105 7 0 13 4 13 8 0 11 96 41 140 45 50 3 157 -1 210 -8z m1534 -1925 c41 -15
50 -74 31 -210 -4 -30 -9 -58 -11 -61 -2 -3 -6 -21 -9 -39 -12 -66 -87 -276
-133 -370 -42 -88 -150 -262 -176 -285 -6 -5 -24 -28 -41 -50 -42 -57 -199
-217 -270 -274 -75 -60 -210 -151 -225 -151 -6 0 -8 -5 -4 -12 4 -6 3 -8 -3
-5 -5 3 -24 -3 -43 -14 -18 -11 -51 -22 -74 -23 -51 -4 -75 19 -70 66 4 33 47
113 74 138 9 8 44 48 77 88 58 69 79 116 75 167 -13 155 -7 168 90 221 37 21
68 41 68 46 0 4 4 7 8 5 15 -4 78 69 102 118 19 40 23 66 25 165 3 152 10 163
143 227 134 64 172 92 231 171 44 59 77 89 103 91 4 1 18 -3 32 -9z"/>
<path d="M1530 3023 c-42 -13 -81 -36 -91 -54 -43 -82 101 -140 172 -70 34 34
37 69 10 102 -17 22 -58 32 -91 22z"/>
<path d="M1594 2242 c-40 -6 -61 -44 -63 -113 -1 -17 -18 -42 -51 -75 -58 -58
-71 -98 -42 -130 38 -41 144 -15 197 47 90 108 63 288 -41 271z"/>
<path d="M1369 2178 c-44 -48 -52 -90 -19 -108 39 -21 98 8 126 62 13 25 13
32 -1 58 -23 44 -57 40 -106 -12z"/>
</g>
</svg>
